/* XPM */
static char *ff_down_small[]={
"21 16 19 1",
"l c #585858",
"j c #646464",
"m c #6d6d6d",
". c #b4b4b4",
"a c #b6b6b6",
"b c #bdbdbd",
"d c #bebebe",
"# c #c8c8c8",
"n c #c9c9c9",
"k c #cdcdcd",
"i c #d0d0d0",
"h c #d1d1d1",
"c c #d3d3d3",
"g c #d4d4d4",
"o c #d5d5d5",
"e c #d9d9d9",
"f c #f5f5f5",
"p c #f6f6f6",
"q c #fdfdfd",
"....................#",
".abbbbbbbbbbbbbbbbbbc",
".deeeeeeeeeeeeeeeeeef",
".deeeeeeeeeeeeeeeeeef",
".deeeegeeeeheeeeeeeef",
".deeeeijekeejekeeeeef",
".deeeeilleeelleeeeeef",
".deeeeillmeellmeeeeef",
".deeeeillllelllleeeef",
".deeeeillmeellmeeeeef",
".deeeeilleeelleeeeeef",
".deeeeijekeejekeeeeef",
".deeeegeeeeheeeeeeeef",
".deeeeeeeeeeeeeeeeeef",
".deeeeeeeeeeeeeeeeeef",
"noppppppppppppppppppq"};
