/* XPM */
static char *ff_up_small[]={
"21 16 9 1",
"d c #585858",
"f c #646464",
"e c #6d6d6d",
"c c #6e6e6e",
"b c #a0a0a0",
"g c #cdcdcd",
"a c #d9d9d9",
"# c #dcdcdc",
". c #ffffff",
"....................#",
".aaaaaaaaaaaaaaaaaaab",
".aaaaaaaaaaaaaaaaaaab",
".aaaaaaaaaaaaaaaaaaab",
".aaaaaaaaaaaaaaaaaaab",
".aaaaaacaaaacaaaaaaab",
".aaaaaaddaaaddaaaaaab",
".aaaaaaddeaaddeaaaaab",
".aaaaaaddddaddddaaaab",
".aaaaaaddeaaddeaaaaab",
".aaaaaaddaaaddaaaaaab",
".aaaaaafagaafagaaaaab",
".aaaaaaaaaaaaaaaaaaab",
".aaaaaaaaaaaaaaaaaaab",
".aaaaaaaaaaaaaaaaaaab",
"#bbbbbbbbbbbbbbbbbbbb"};
