/* XPM */
static char *pause_down_small[]={
"21 16 13 1",
"g c #585858",
". c #b4b4b4",
"a c #b6b6b6",
"b c #bdbdbd",
"d c #bebebe",
"# c #c8c8c8",
"h c #c9c9c9",
"c c #d3d3d3",
"i c #d5d5d5",
"e c #d9d9d9",
"f c #f5f5f5",
"j c #f6f6f6",
"k c #fdfdfd",
"....................#",
".abbbbbbbbbbbbbbbbbbc",
".deeeeeeeeeeeeeeeeeef",
".deeeeeeeeeeeeeeeeeef",
".deeeeeeeeeeeeeeeeeef",
".deeeeeeggeeggeeeeeef",
".deeeeeeggeeggeeeeeef",
".deeeeeeggeeggeeeeeef",
".deeeeeeggeeggeeeeeef",
".deeeeeeggeeggeeeeeef",
".deeeeeeggeeggeeeeeef",
".deeeeeeggeeggeeeeeef",
".deeeeeeeeeeeeeeeeeef",
".deeeeeeeeeeeeeeeeeef",
".deeeeeeeeeeeeeeeeeef",
"hijjjjjjjjjjjjjjjjjjk"};
