/* XPM */
static char *play_down_small[]={
"21 16 20 1",
"m c #585858",
"k c #646464",
"n c #6d6d6d",
"j c #6e6e6e",
". c #b4b4b4",
"a c #b6b6b6",
"b c #bdbdbd",
"d c #bebebe",
"# c #c8c8c8",
"o c #c9c9c9",
"l c #cdcdcd",
"i c #d0d0d0",
"h c #d1d1d1",
"c c #d3d3d3",
"g c #d4d4d4",
"p c #d5d5d5",
"e c #d9d9d9",
"f c #f5f5f5",
"q c #f6f6f6",
"r c #fdfdfd",
"....................#",
".abbbbbbbbbbbbbbbbbbc",
".deeeeeeeeeeeeeeeeeef",
".deeeeeeeeeeeeeeeeeef",
".deeeegeeeeheeeeeeeef",
".deeeeijeekeleeeeeeef",
".deeeeijeemmeeeeeeeef",
".deeeeijeemmneeeeeeef",
".deeeeijeemmmmeeeeeef",
".deeeeijeemmneeeeeeef",
".deeeeijeemmeeeeeeeef",
".deeeeijeekeleeeeeeef",
".deeeegeeeeheeeeeeeef",
".deeeeeeeeeeeeeeeeeef",
".deeeeeeeeeeeeeeeeeef",
"opqqqqqqqqqqqqqqqqqqr"};
