/* XPM */
static char * progress_middle_xpm[] = {
"1 31 11 1",
" 	c #FDFDFE",
".	c #F8F8FC",
"+	c #EFEEF8",
"@	c #DCDAF0",
"#	c #C0BCE4",
"$	c #9C95D5",
"%	c #756BC4",
"&	c #5144B4",
"*	c #3526A9",
"=	c #2212A1",
"-	c #FFFFFF",
" ",
".",
"+",
"@",
"#",
"$",
"%",
"&",
"*",
"=",
"-",
"-",
"-",
"-",
"-",
"-",
"-",
"-",
"-",
"-",
"-",
"=",
"*",
"&",
"%",
"$",
"#",
"@",
"+",
".",
" "};
