/* XPM */
static char * progress_fill_xpm[] = {
"1 11 11 1",
" 	c #7BFD79",
".	c #5DFF5A",
"+	c #30FD2D",
"@	c #11FD0D",
"#	c #06FD02",
"$	c #04FF00",
"%	c #05FD00",
"&	c #05F300",
"*	c #05D700",
"=	c #04B000",
"-	c #039400",
" ",
".",
"+",
"@",
"#",
"$",
"%",
"&",
"*",
"=",
"-"};
