/* XPM */
static char * progress_right_xpm[] = {
"10 31 69 1",
" 	c None",
".	c #FEFEFE",
"+	c #FAFAFD",
"@	c #FBFBFD",
"#	c #FCFCFD",
"$	c #FDFDFE",
"%	c #F2F2F9",
"&	c #F4F4FA",
"*	c #F7F7FB",
"=	c #E4E2F3",
"-	c #E7E6F5",
";	c #EDECF7",
">	c #CCC9E9",
",	c #D4D1EC",
"'	c #DDDBF0",
")	c #E6E5F4",
"!	c #F0EFF8",
"~	c #F6F6FB",
"{	c #ADA7DC",
"]	c #B8B3E0",
"^	c #C7C3E7",
"/	c #D6D3ED",
"(	c #E4E3F3",
"_	c #8981CD",
":	c #9891D3",
"<	c #ACA6DB",
"[	c #C1BDE4",
"}	c #F9F9FC",
"|	c #675CBE",
"1	c #796FC5",
"2	c #9189D0",
"3	c #4B3EB2",
"4	c #5F53BA",
"5	c #3829AA",
"6	c #CBC8E9",
"7	c #F1F1F9",
"8	c #2C1DA5",
"9	c #4032AD",
"0	c #5C50B9",
"a	c #7F76C8",
"b	c #A49ED8",
"c	c #E0DEF1",
"d	c #F1F0F9",
"e	c #2717A3",
"f	c #392BAB",
"g	c #5549B6",
"h	c #7A70C6",
"i	c #A19AD6",
"j	c #C3BFE5",
"k	c #DEDCF1",
"l	c #2414A1",
"m	c #3728A9",
"n	c #5346B5",
"o	c #776DC5",
"p	c #9E97D5",
"q	c #C2BEE5",
"r	c #EFEEF8",
"s	c #F8F8FC",
"t	c #2313A1",
"u	c #3627A9",
"v	c #5245B5",
"w	c #766CC4",
"x	c #9D96D5",
"y	c #3526A9",
"z	c #5144B4",
"A	c #756BC4",
"B	c #2212A1",
"C	c #C0BCE4",
"D	c #DCDAF0",
"..        ",
"+@#$.     ",
"%&*+#.    ",
"=-;%*@$   ",
">,')!~@$  ",
"{]^/(!*#. ",
"_:<[/)%}$ ",
"|12<^';*#.",
"341:],-&@.",
"53|_{6=7+.",
"890ab^cd}$",
"efghijk!}$",
"lmnopq'rs$",
"tuvwx['rs$",
"tyzAx['rs$",
"ByzAxCDrs$",
"ByzAxCDrs$",
"tyzAx['rs$",
"lmnopq'rs$",
"efghijk!}$",
"890ab^cd}$",
"53|_{6=7+.",
"341:],-&@.",
"|12<^';*#.",
"_:<[/)%}$ ",
"{]^/(!*#. ",
">,')!~@$  ",
"=-;%*@$   ",
"%&*+#.    ",
"+@#$.     ",
"..        "};
