/* XPM */
static char * progress_left_xpm[] = {
"10 31 69 1",
" 	c None",
".	c #FEFEFE",
"+	c #FDFDFE",
"@	c #FCFCFD",
"#	c #FBFBFD",
"$	c #FAFAFD",
"%	c #F7F7FB",
"&	c #F4F4FA",
"*	c #F2F2F9",
"=	c #EDECF7",
"-	c #E7E6F5",
";	c #E4E2F3",
">	c #F6F6FB",
",	c #F0EFF8",
"'	c #E6E5F4",
")	c #DDDBF0",
"!	c #D4D1EC",
"~	c #CCC9E9",
"{	c #E4E3F3",
"]	c #D6D3ED",
"^	c #C7C3E7",
"/	c #B8B3E0",
"(	c #ADA7DC",
"_	c #F9F9FC",
":	c #C1BDE4",
"<	c #ACA6DB",
"[	c #9891D3",
"}	c #8981CD",
"|	c #9189D0",
"1	c #796FC5",
"2	c #675CBE",
"3	c #5F53BA",
"4	c #4B3EB2",
"5	c #F1F1F9",
"6	c #CBC8E9",
"7	c #3829AA",
"8	c #F1F0F9",
"9	c #E0DEF1",
"0	c #A49ED8",
"a	c #7F76C8",
"b	c #5C50B9",
"c	c #4032AD",
"d	c #2C1DA5",
"e	c #DEDCF1",
"f	c #C3BFE5",
"g	c #A19AD6",
"h	c #7A70C6",
"i	c #5549B6",
"j	c #392BAB",
"k	c #2717A3",
"l	c #F8F8FC",
"m	c #EFEEF8",
"n	c #C2BEE5",
"o	c #9E97D5",
"p	c #776DC5",
"q	c #5346B5",
"r	c #3728A9",
"s	c #2414A1",
"t	c #9D96D5",
"u	c #766CC4",
"v	c #5245B5",
"w	c #3627A9",
"x	c #2313A1",
"y	c #756BC4",
"z	c #5144B4",
"A	c #3526A9",
"B	c #DCDAF0",
"C	c #C0BCE4",
"D	c #2212A1",
"        ..",
"     .+@#$",
"    .@$%&*",
"   +#%*=-;",
"  +#>,')!~",
" .@%,{]^/(",
" +_*']:<[}",
".@%=)^<|12",
".#&-!/[134",
".$5;6(}247",
"+_89^0abcd",
"+_,efghijk",
"+lm)nopqrs",
"+lm):tuvwx",
"+lm):tyzAx",
"+lmBCtyzAD",
"+lmBCtyzAD",
"+lm):tyzAx",
"+lm)nopqrs",
"+_,efghijk",
"+_89^0abcd",
".$5;6(}247",
".#&-!/[134",
".@%=)^<|12",
" +_*']:<[}",
" .@%,{]^/(",
"  +#>,')!~",
"   +#%*=-;",
"    .@$%&*",
"     .+@#$",
"        .."};
