/* XPM */
static char *rew_up_small[]={
"21 16 5 1",
"c c #646464",
"b c #a0a0a0",
"a c #d9d9d9",
"# c #dcdcdc",
". c #ffffff",
"....................#",
".aaaaaaaaaaaaaaaaaaab",
".aaaaaaaaaaaaaaaaaaab",
".aaaaaaaaaaaaaaaaaaab",
".aaaaaaaaaaaaaaaaaaab",
".aaaaaaaacaaaacaaaaab",
".aaaaaaaccaaaccaaaaab",
".aaaaaacccaacccaaaaab",
".aaaaaccccaccccaaaaab",
".aaaaaacccaacccaaaaab",
".aaaaaaaccaaaccaaaaab",
".aaaaaaaacaaaacaaaaab",
".aaaaaaaaaaaaaaaaaaab",
".aaaaaaaaaaaaaaaaaaab",
".aaaaaaaaaaaaaaaaaaab",
"#bbbbbbbbbbbbbbbbbbbb"};
