/* XPM */
static char *rew_down_small[]={
"21 16 15 1",
"i c #646464",
". c #b4b4b4",
"a c #b6b6b6",
"b c #bdbdbd",
"d c #bebebe",
"# c #c8c8c8",
"j c #c9c9c9",
"h c #d1d1d1",
"c c #d3d3d3",
"g c #d4d4d4",
"k c #d5d5d5",
"e c #d9d9d9",
"f c #f5f5f5",
"l c #f6f6f6",
"m c #fdfdfd",
"....................#",
".abbbbbbbbbbbbbbbbbbc",
".deeeeeeeeeeeeeeeeeef",
".deeeeeeeeeeeeeeeeeef",
".deeeegeeeeheeeeeeeef",
".deeeeeeeieeeeieeeeef",
".deeeeeeiieeeiieeeeef",
".deeeeeiiieeiiieeeeef",
".deeeeiiiieiiiieeeeef",
".deeeeeiiieeiiieeeeef",
".deeeeeeiieeeiieeeeef",
".deeeeeeeieeeeieeeeef",
".deeeegeeeeheeeeeeeef",
".deeeeeeeeeeeeeeeeeef",
".deeeeeeeeeeeeeeeeeef",
"jkllllllllllllllllllm"};
