/* XPM */
static char * start[] = {
"50 29 3 1",
" 	c None",
".	c #646464",
"+	c #000000",
"..................................................",
"..................................................",
"..                                              ..",
"..                                              ..",
"..                                              ..",
"..                                              ..",
"..                                              ..",
"..                                              ..",
"..                                              ..",
"..           +++                                ..",
"..         ++  ++  +                 +          ..",
"..         +       +                 +          ..",
"..         +       +++  +++++   +++ ++++        ..",
"..          +++    +        +   +    +          ..",
"..            +++  +     ++++   +    +          ..",
"..              +  +    +   +   +    +          ..",
"..              +  +    +   +   +    +          ..",
"..         ++  ++  ++   +  ++   +    ++         ..",
"..          +++          ++            +        ..",
"..                                              ..",
"..                                              ..",
"..                                              ..",
"..                                              ..",
"..                                              ..",
"..                                              ..",
"..                                              ..",
"..                                              ..",
"..................................................",
".................................................."};
