/* XPM */
static char *stop_up_small[]={
"21 16 15 1",
"i c #585858",
"m c #b6b6b6",
"l c #bdbdbd",
"h c #bebebe",
"e c #cbcbcb",
"k c #cecece",
"b c #d0d0d0",
"j c #d4d4d4",
"g c #d9d9d9",
"d c #e7e7e7",
"a c #ececec",
"f c #f5f5f5",
"c c #f9f9f9",
"# c #fafafa",
". c #ffffff",
".#aaaaaaaaaaaaaaaaaab",
".cdddddddddddddddddde",
".fggggggggggggggggggh",
".fggggggggggggggggggh",
".fggggggggggggggggggh",
".fggggggggggggggggggh",
".fggggggiiiiigggggggh",
".fggggggiiiiigggggggh",
".fggggggiiiiigggggggh",
".fggggggiiiiigggggggh",
".fggggggiiiiigggggggh",
".fggggggggggggggggggh",
".fggggggggggggggggggh",
".fggggggggggggggggggh",
".fggggggggggggggggggh",
"jkllllllllllllllllllm"};
