/* XPM */
static char * volume[] = {
"22 16 101 2",
"  	c None",
". 	c #F3F3F3",
"+ 	c #E5E5E5",
"@ 	c #5B5B5B",
"# 	c #141414",
"$ 	c #090909",
"% 	c #989898",
"& 	c #A8B7CA",
"* 	c #E5E8EB",
"= 	c #C6C6C6",
"- 	c #1D1D1D",
"; 	c #767676",
"> 	c #565656",
", 	c #484848",
"' 	c #1E1E1E",
") 	c #2F5787",
"! 	c #103E76",
"~ 	c #D5DBE2",
"{ 	c #BFBFBF",
"] 	c #A3A3A3",
"^ 	c #4D4D4D",
"/ 	c #4E4E4E",
"( 	c #1A1A1A",
"_ 	c #B7B7B7",
": 	c #1F4A7E",
"< 	c #3E628F",
"[ 	c #7A7A7A",
"} 	c #C9C9C9",
"| 	c #FAFAFA",
"1 	c #787878",
"2 	c #515151",
"3 	c #373737",
"4 	c #5C7AA0",
"5 	c #98ABC1",
"6 	c #B7C3D2",
"7 	c #01326E",
"8 	c #C6CFDA",
"9 	c #575757",
"0 	c #9F9F9F",
"a 	c #E8E8E8",
"b 	c #EFEFEF",
"c 	c #5E5E5E",
"d 	c #696969",
"e 	c #555555",
"f 	c #6B6B6B",
"g 	c #7A93B1",
"h 	c #1C1C1C",
"i 	c #E6E6E6",
"j 	c #D6D6D6",
"k 	c #D7D7D7",
"l 	c #DEDEDE",
"m 	c #7B7B7B",
"n 	c #D0D0D0",
"o 	c #959595",
"p 	c #616161",
"q 	c #3D3D3D",
"r 	c #899FB9",
"s 	c #D5D5D5",
"t 	c #343434",
"u 	c #D1D1D1",
"v 	c #C4C4C4",
"w 	c #CDCDCD",
"x 	c #8F8F8F",
"y 	c #D2D2D2",
"z 	c #A6A6A6",
"A 	c #6F6F6F",
"B 	c #222222",
"C 	c #B3B3B3",
"D 	c #B0B0B0",
"E 	c #B5B5B5",
"F 	c #BBBBBB",
"G 	c #898989",
"H 	c #CFCFCF",
"I 	c #ADADAD",
"J 	c #6C87A9",
"K 	c #747474",
"L 	c #969696",
"M 	c #AAAAAA",
"N 	c #676767",
"O 	c #A7A7A7",
"P 	c #A0A0A0",
"Q 	c #838383",
"R 	c #282828",
"S 	c #8E8E8E",
"T 	c #9A9A9A",
"U 	c #9C9C9C",
"V 	c #323232",
"W 	c #878787",
"X 	c #717171",
"Y 	c #818181",
"Z 	c #999999",
"` 	c #2E2E2E",
" .	c #333333",
"..	c #727272",
"+.	c #777777",
"@.	c #919191",
"#.	c #4D6E97",
"$.	c #0F0F0F",
"%.	c #3C3C3C",
"&.	c #4A4A4A",
"*.	c #4C4C4C",
". . . . . . . . . . . . . . . . . . . . . . ",
". . . . . . . . + @ # $ % . . & * . . . . . ",
". . . . . . . = - ; > , ' . . ) ! ~ . . . . ",
". . . . . . = ' { ] ^ / ( _ . * : < . . . . ",
". . . . + [ ' } | 1 2 @ 3 [ 4 5 6 7 8 . . . ",
". . . . @ 9 0 a b @ c d e f * : ~ : g . . . ",
". . . . h i j k l m n o p q . 5 r 4 < . . . ",
". . . s t u v = w x y z A q . 6 g g < . . . ",
". . . . B C D E F G H I m q . & g J < . . . ",
". . . . q K L ] M N O P Q q . < 8 ) J . . . ",
". . . . = ' R S T A Q U [ [ J 4 ~ 7 & . . . ",
". . . . . . f V W X Y Z > % ~ . < : . . . . ",
". . . . . . . `  ...+.@.' s . #.7 6 . . . . ",
". . . . . . . . f $.%.&.*.. . g 6 . . . . . ",
". . . . . . . . . s [ @ + . . . . . . . . . ",
". . . . . . . . . . . . . . . . . . . . . . "};
